<?xml version="1.0" standalone="no"?>
<!DOCTYPE svg PUBLIC "-//W3C//DTD SVG 20010904//EN"
 "http://www.w3.org/TR/2001/REC-SVG-20010904/DTD/svg10.dtd">
<svg version="1.0" xmlns="http://www.w3.org/2000/svg"
 width="225.000000pt" height="225.000000pt" viewBox="0 0 225.000000 225.000000"
 preserveAspectRatio="xMidYMid meet">

<g transform="translate(0.000000,225.000000) scale(0.100000,-0.100000)"
fill="#fff" stroke="none">
<path d="M1000 2054 c-227 -42 -392 -124 -536 -268 -167 -168 -258 -370 -271
-607 -25 -456 262 -846 712 -964 33 -9 111 -18 173 -22 l113 -6 -47 70 -47 70
-67 7 c-179 16 -349 104 -485 248 -147 157 -215 327 -215 543 0 213 67 385
210 538 233 250 583 326 895 196 187 -78 354 -248 432 -439 27 -69 53 -178 53
-230 0 -32 6 -39 71 -83 l72 -48 -5 108 c-21 424 -294 756 -713 868 -58 16
-293 29 -345 19z"/>
<path d="M793 1416 c-38 -17 -63 -61 -63 -112 0 -28 8 -44 34 -70 29 -29 41
-34 79 -34 51 0 88 24 107 69 38 94 -63 189 -157 147z"/>
<path d="M1370 1423 c-31 -11 -70 -58 -76 -90 -14 -72 39 -133 113 -133 38 0
50 5 79 34 39 39 45 86 18 137 -22 43 -88 69 -134 52z"/>
<path d="M1516 1109 c-81 -19 -170 -71 -236 -138 -105 -107 -150 -214 -150
-361 0 -227 144 -424 358 -490 80 -25 215 -27 293 -4 128 38 256 140 312 249
61 121 75 274 37 397 -50 164 -192 300 -355 343 -64 16 -197 18 -259 4z m156
-186 c16 -14 18 -33 18 -140 l0 -123 122 0 c128 0 158 -10 158 -51 0 -41 -25
-49 -156 -49 l-124 0 0 -124 c0 -100 -3 -128 -16 -140 -20 -21 -43 -20 -66 1
-16 14 -18 33 -18 140 l0 123 -122 0 c-99 0 -125 3 -140 17 -22 20 -23 41 -1
65 14 16 33 18 140 18 l123 0 0 122 c0 99 3 125 17 140 20 22 41 23 65 1z"/>
<path d="M692 867 c-38 -41 -29 -72 41 -141 67 -66 150 -115 236 -140 30 -9
55 -15 57 -13 1 1 4 32 6 69 l4 68 -36 11 c-66 22 -112 50 -176 110 -70 65
-98 73 -132 36z"/>
</g>
</svg>
