<svg width="107" height="139" viewBox="0 0 107 139" fill="none" xmlns="http://www.w3.org/2000/svg">
<path d="M33 122.5C33 131.613 25.6127 139 16.5 139C7.3873 139 0 131.613 0 122.5C0 113.387 7.3873 106 16.5 106C25.6127 106 33 113.387 33 122.5ZM4.34159 122.5C4.34159 129.215 9.7851 134.658 16.5 134.658C23.2149 134.658 28.6584 129.215 28.6584 122.5C28.6584 115.785 23.2149 110.342 16.5 110.342C9.7851 110.342 4.34159 115.785 4.34159 122.5Z" fill="#887CFC"/>
<path d="M107 93.5C107 102.613 99.6127 110 90.5 110C81.3873 110 74 102.613 74 93.5C74 84.3873 81.3873 77 90.5 77C99.6127 77 107 84.3873 107 93.5ZM78.3114 93.5C78.3114 100.232 83.7684 105.689 90.5 105.689C97.2316 105.689 102.689 100.232 102.689 93.5C102.689 86.7684 97.2316 81.3114 90.5 81.3114C83.7684 81.3114 78.3114 86.7684 78.3114 93.5Z" fill="#887CFC"/>
<path d="M29 33C29 31.8954 29.8954 31 31 31V31C32.1046 31 33 31.8954 33 33V123V123C30.7909 123 29 121.209 29 119V33Z" fill="#887CFC"/>
<path d="M103 2C103 0.89543 103.895 0 105 0V0C106.105 0 107 0.895431 107 2V92V92C104.791 92 103 90.2091 103 88V2Z" fill="#887CFC"/>
<path d="M103.586 0.73679C104.613 0.329873 105.775 0.832454 106.182 1.85934V1.85934C106.589 2.88622 106.087 4.04855 105.06 4.45547L29.4736 34.4075V34.4075C28.6597 32.3538 29.6649 30.0291 31.7187 29.2153L103.586 0.73679Z" fill="#887CFC"/>
<path d="M103.586 29.7368C104.613 29.3299 105.775 29.8325 106.182 30.8593V30.8593C106.589 31.8862 106.087 33.0485 105.06 33.4555L29.4736 63.4075V63.4075C28.6597 61.3538 29.6649 59.0291 31.7187 58.2153L103.586 29.7368Z" fill="#887CFC"/>
</svg>
