<svg width="429" height="287" viewBox="0 0 429 287" fill="none" xmlns="http://www.w3.org/2000/svg">
<path d="M1.37802 17.0204C2.4219 7.62028 10.6116 2.20409 19.6703 4.92298L408.672 121.679C419.542 124.942 427.339 136.731 426.086 148.011V148.011L4.28042 21.409C2.46869 20.8653 1.16924 18.9004 1.37802 17.0204V17.0204Z" fill="#887CFC"/>
<path d="M0.999997 266.587C2.2526 277.866 12.0798 284.365 22.9496 281.103L408.673 165.331C419.543 162.068 427.339 150.28 426.086 139V139L0.999997 266.587V266.587Z" fill="#887CFC"/>
<rect x="54" y="133" width="362" height="21" fill="#887CFC"/>
<path d="M1.5464 20.0454C0.69235 17.4194 2.12882 14.5982 4.75485 13.7442L11.5125 11.5464C14.1386 10.6923 16.9597 12.1288 17.8138 14.7549L58.1453 138.766C58.9994 141.392 57.5629 144.213 54.9369 145.067L48.1792 147.265C45.5532 148.119 42.732 146.682 41.878 144.056L1.5464 20.0454Z" fill="#887CFC"/>
<path d="M1.5464 261.766C0.69235 264.392 2.12882 267.213 4.75485 268.067L11.5125 270.265C14.1386 271.119 16.9597 269.682 17.8138 267.056L58.1453 143.045C58.9994 140.419 57.5629 137.598 54.9369 136.744L48.1792 134.546C45.5532 133.692 42.732 135.129 41.878 137.755L1.5464 261.766Z" fill="#887CFC"/>
</svg>
